<svg width="179" height="179" viewBox="0 0 179 179" fill="none" xmlns="http://www.w3.org/2000/svg">
<g id="Group 2">
<path id="Ellipse 1" d="M178.068 89.034C178.068 138.206 138.206 178.068 89.034 178.068C39.8619 178.068 0 138.206 0 89.034C0 39.8619 39.8619 0 89.034 0C138.206 0 178.068 39.8619 178.068 89.034Z" fill="#2E0000"/>
<path id="Ellipse 1 (Stroke)" fill-rule="evenodd" clip-rule="evenodd" d="M89.034 168.338C132.832 168.338 168.338 132.832 168.338 89.034C168.338 45.2359 132.832 9.73049 89.034 9.73049C45.2359 9.73049 9.73049 45.2359 9.73049 89.034C9.73049 132.832 45.2359 168.338 89.034 168.338ZM89.034 178.068C138.206 178.068 178.068 138.206 178.068 89.034C178.068 39.8619 138.206 0 89.034 0C39.8619 0 0 39.8619 0 89.034C0 138.206 39.8619 178.068 89.034 178.068Z" fill="#AA0000"/>
<path id="Vector" d="M53.1735 138.161C33.3395 113.573 84.7343 98.4599 68.5082 88.4721H38.3256L88.6509 9.45494L137.515 88.4721H103.681C95.6745 95.8764 135.626 94.1268 116.46 113.688C105.871 92.2182 88.6509 144.279 124.857 141.853C161.064 139.426 144.21 153.233 144.21 153.233C109.637 178.43 64.5108 175.336 33.0923 153.122C33.0923 153.122 39.0259 133.562 47.1534 141.853C55.281 150.144 71.064 144.33 67.0478 132.346C63.0315 120.362 53.1735 124.033 53.1735 138.161Z" fill="#AA0000"/>
<path id="Vector (Stroke)" fill-rule="evenodd" clip-rule="evenodd" d="M88.6669 9.45494L137.635 89.0368H103.709C103.238 89.481 102.95 89.8835 102.811 90.2503C102.67 90.6222 102.68 90.9614 102.812 91.2822C102.945 91.6069 103.208 91.9211 103.587 92.2301C103.965 92.5386 104.453 92.8367 105.028 93.1312C106.178 93.7205 107.659 94.287 109.269 94.8921C109.387 94.9363 109.506 94.9807 109.625 95.0254C111.131 95.5906 112.733 96.1916 114.261 96.8747C115.909 97.6118 117.476 98.447 118.748 99.4411C120.021 100.435 121.006 101.594 121.477 102.978C122.424 105.758 121.285 109.374 116.497 114.284L116.378 114.407L116.302 114.253C114.987 111.573 113.579 110.063 112.206 109.442C110.843 108.826 109.492 109.077 108.254 109.971C107.012 110.868 105.888 112.412 105.005 114.366C104.123 116.318 103.486 118.67 103.213 121.172C102.665 126.179 103.572 131.768 106.85 135.951C110.124 140.128 115.781 142.925 124.781 142.319C133.816 141.71 139.554 142.118 143.078 143.079C146.6 144.04 147.947 145.567 148.11 147.221C148.271 148.852 147.269 150.54 146.255 151.802C145.744 152.438 145.225 152.973 144.833 153.349C144.637 153.537 144.473 153.686 144.357 153.788C144.299 153.839 144.254 153.878 144.223 153.904C144.207 153.918 144.195 153.928 144.187 153.935L144.177 153.942L144.175 153.944L144.174 153.945C144.174 153.945 144.174 153.945 144.097 153.851L144.174 153.945L144.171 153.947L144.169 153.949C109.629 179.249 64.5483 176.14 33.1636 153.84L33.0923 153.789L33.1176 153.705L33.2337 153.74C33.1176 153.705 33.1177 153.705 33.1177 153.705L33.1188 153.701L33.1221 153.69C33.125 153.681 33.1294 153.667 33.1352 153.648C33.1467 153.611 33.1639 153.556 33.1867 153.485C33.2323 153.342 33.3001 153.135 33.3892 152.874C33.5675 152.353 33.8311 151.617 34.1728 150.76C34.8559 149.048 35.8527 146.848 37.1056 144.906C38.3557 142.969 39.8733 141.269 41.6053 140.585C42.475 140.242 43.3984 140.154 44.364 140.421C45.328 140.688 46.3253 141.305 47.3495 142.355C51.3653 146.472 57.2745 147.088 61.6828 145.186C63.8857 144.235 65.7077 142.658 66.7324 140.581C67.7561 138.507 67.9893 135.923 66.9966 132.946C65.9995 129.956 64.6446 127.958 63.1853 126.854C61.73 125.754 60.1693 125.541 58.7328 126.118C57.2908 126.697 55.9551 128.081 54.9787 130.212C54.0029 132.342 53.3904 135.21 53.3904 138.738V139.083L53.1746 138.814C48.203 132.62 47.687 127.007 49.4735 121.92C51.2553 116.847 55.3229 112.311 59.4845 108.249C60.5257 107.233 61.5737 106.246 62.5942 105.287L62.8129 105.081C63.7568 104.194 64.6746 103.332 65.5401 102.492C67.4057 100.683 69.022 98.9851 70.1255 97.3885C71.2302 95.7901 71.8074 94.3118 71.6274 92.9359C71.4491 91.5721 70.5214 90.2731 68.5343 89.0368H38.2341L88.6669 9.45494ZM33.3757 153.692C64.6805 175.891 109.602 178.964 144.023 153.755L144.032 153.747C144.039 153.741 144.051 153.731 144.066 153.719C144.083 153.704 144.104 153.686 144.13 153.663C144.15 153.646 144.172 153.626 144.197 153.605C144.31 153.505 144.472 153.359 144.665 153.173C145.052 152.802 145.564 152.274 146.066 151.65C147.076 150.392 148.019 148.772 147.869 147.245C147.72 145.742 146.499 144.265 143.014 143.314C139.53 142.364 133.824 141.954 124.797 142.562C115.736 143.172 109.994 140.355 106.659 136.102C103.33 131.854 102.419 126.194 102.971 121.146C103.248 118.62 103.891 116.243 104.784 114.265C105.677 112.29 106.823 110.704 108.112 109.773C109.406 108.838 110.849 108.562 112.306 109.22C113.726 109.862 115.139 111.384 116.443 113.991C121.115 109.158 122.14 105.675 121.248 103.057C120.797 101.732 119.85 100.61 118.599 99.6333C117.349 98.6566 115.802 97.8307 114.162 97.0972C112.642 96.4172 111.046 95.8187 109.538 95.2531C109.42 95.2086 109.302 95.1643 109.184 95.1202C107.576 94.5162 106.082 93.9449 104.917 93.3481C104.335 93.0496 103.83 92.7426 103.434 92.4191C103.037 92.096 102.742 91.7512 102.588 91.3751C102.431 90.9949 102.422 90.5914 102.584 90.1637C102.745 89.7399 103.072 89.2967 103.579 88.8257L103.613 88.7933H137.2L88.6639 9.91351L38.676 88.7933H68.6032L68.6324 88.8114C70.6725 90.0734 71.6755 91.4327 71.868 92.9042C72.0598 94.3702 71.4416 95.9116 70.3248 97.5273C69.2068 99.145 67.5756 100.856 65.7088 102.667C64.8415 103.509 63.922 104.373 62.9781 105.26L62.7601 105.465C61.7395 106.424 60.693 107.41 59.6536 108.424C55.4931 112.485 51.4636 116.986 49.7023 122.001C47.9715 126.929 48.4268 132.367 53.1497 138.392C53.1884 134.994 53.7971 132.208 54.7583 130.11C55.7512 127.943 57.1249 126.501 58.6427 125.892C60.1659 125.28 61.8154 125.514 63.3313 126.66C64.8431 127.803 66.2203 129.851 67.2267 132.869C68.2376 135.9 68.005 138.551 66.9498 140.689C65.8955 142.826 64.0253 144.44 61.7787 145.409C57.2881 147.347 51.2693 146.722 47.1761 142.525C46.173 141.497 45.2115 140.908 44.2996 140.656C43.3893 140.404 42.5198 140.486 41.6942 140.812C40.0356 141.467 38.5527 143.112 37.3092 145.039C36.0684 146.962 35.0784 149.145 34.3981 150.851C34.0581 151.703 33.7959 152.435 33.6187 152.953C33.5301 153.212 33.4628 153.418 33.4177 153.559C33.4005 153.613 33.3864 153.658 33.3757 153.692Z" fill="#AA0000"/>
<path id="Vector 1" d="M62.245 70.912C68.5844 81.275 73.0442 83.3574 81.9428 81.1477C75.5576 76.148 71.0178 74.0809 62.245 70.912Z" fill="#FF8A00"/>
<path id="Vector 1 (Stroke)" fill-rule="evenodd" clip-rule="evenodd" d="M61.4571 70.912L61.7971 71.0253C71.0149 74.0957 75.7955 76.1022 82.5149 80.954L82.7307 81.1098L82.4692 81.1697C77.7856 82.2422 74.2452 82.2791 71.0369 80.7705C67.8337 79.2643 64.9832 76.2273 61.6521 71.206L61.4571 70.912ZM62.0579 71.3689C65.2986 76.205 68.0686 79.1052 71.1452 80.5519C74.2194 81.9974 77.6206 82.001 82.1494 80.9927C75.6552 76.3341 70.9425 74.3386 62.0579 71.3689Z" fill="#FF8A00"/>
<path id="Vector 2" d="M115.823 70.912C109.23 81.275 104.592 83.3574 95.3373 81.1477C101.978 76.148 106.699 74.0809 115.823 70.912Z" fill="#FF8A00"/>
<path id="Vector 2 (Stroke)" fill-rule="evenodd" clip-rule="evenodd" d="M116.611 70.912L116.274 71.0244C107.055 74.095 102.274 76.1016 95.5538 80.9535L95.3373 81.1098L95.5987 81.1697C100.283 82.2422 103.823 82.279 107.031 80.7707C110.234 79.2646 113.084 76.2276 116.416 71.2058L116.611 70.912ZM116.014 71.3675C112.772 76.2039 110.002 79.1046 106.925 80.5515C103.849 81.9975 100.447 82.001 95.9172 80.9925C102.413 76.3334 107.126 74.3378 116.014 71.3675Z" fill="#FF8A00"/>
</g>
</svg>
